<svg width="80" height="35" viewBox="0 0 80 35" fill="none" xmlns="http://www.w3.org/2000/svg">
<path fill-rule="evenodd" clip-rule="evenodd" d="M50.6765 15.7549C54.4022 18.6896 60.9453 25.3809 54.9585 29.5357C51.1487 32.1788 44.5463 32.3686 41.0541 29.0302C36.6775 24.846 40.2963 19.0893 43.8966 15.8982C44.9327 14.9792 46.0486 14.1416 47.2158 13.3645C48.4131 14.0952 49.5734 14.886 50.6765 15.7549ZM79.4387 1.4974C68.7243 1.59391 57.1641 4.20694 47.7183 9.73044C45.5475 8.55604 43.4023 7.6078 41.5514 6.90806C30.7984 2.84408 17.4311 1.89651 6.25076 4.71705C5.02906 5.0257 4.92044 6.54714 5.61997 7.31079C5.18225 6.9324 4.74908 6.5485 4.32045 6.15908C5.38074 5.08238 6.57608 4.20636 7.97487 3.49246C8.82979 3.0565 9.86186 2.83957 10.6683 2.34581C11.1487 2.05184 11.0556 1.66118 11.6227 1.41211C11.8036 1.33268 11.8426 1.0436 11.6111 0.994125C10.9771 0.859147 10.6866 0.394929 10.0469 0.286528C9.0391 0.115337 7.35727 0.695971 6.4473 1.04093C4.18105 1.90001 2.22545 3.34278 0.574296 5.09723C-0.115098 5.83022 0.0276674 6.88398 0.665733 7.5834C2.22969 9.29824 4.03714 10.7913 5.91579 12.1477C7.54372 13.3224 9.31718 14.7622 11.318 15.1428C12.8867 15.4421 13.8784 13.5941 12.7615 12.4508C11.3987 11.0553 9.44838 10.2614 7.86649 9.11353C7.18821 8.62148 6.54454 8.09552 5.91167 7.55734C6.13879 7.69506 6.41389 7.77002 6.73527 7.74686C17.1182 6.99776 26.9659 6.00662 37.1604 8.98088C39.6646 9.71043 42.1168 10.6585 44.4534 11.8318C44.2575 11.9689 44.0538 12.0986 43.8588 12.2389C37.4591 16.8632 31.685 26.9464 40.4247 32.6023C46.6273 36.6177 60.3923 34.9625 60.653 25.6697C60.8198 19.7323 55.9679 14.8554 50.5249 11.3821C53.5009 9.77285 56.6623 8.45117 59.6927 7.22351C66.0096 4.66335 72.7252 2.99694 79.4489 1.93101C79.7154 1.88851 79.7269 1.4946 79.4387 1.4974Z" fill="black"/>
</svg>
