<svg width="49" height="49" viewBox="0 0 49 49" fill="none" xmlns="http://www.w3.org/2000/svg">
<path d="M24.4778 49C26.0743 49 27.3824 47.825 27.6041 46.162C29.799 31.3511 31.8167 29.2892 46.0513 27.6707C47.6918 27.4711 48.9557 26.0965 48.9557 24.5001C48.9557 22.8814 47.7141 21.5512 46.0733 21.3073C31.9276 19.334 30.1761 17.6045 27.6041 2.81596C27.3158 1.17521 26.052 0 24.4778 0C22.8594 0 21.5732 1.17521 21.3073 2.83801C19.1566 17.6268 17.139 19.6888 2.92667 21.3073C1.24159 21.5291 0 22.8594 0 24.5001C0 26.0965 1.19726 27.4268 2.88234 27.6707C17.0501 29.6883 18.7795 31.3955 21.3073 46.1843C21.6398 47.8471 22.9257 49 24.4778 49Z" fill="#0C0C0C"/>
</svg>
