<svg width="123" height="117" viewBox="0 0 123 117" fill="none" xmlns="http://www.w3.org/2000/svg">
<mask id="mask0_1_18" style="mask-type:alpha" maskUnits="userSpaceOnUse" x="0" y="1" width="122" height="116">
<rect x="0.731934" y="15.2847" width="109" height="102" transform="rotate(-7.35424 0.731934 15.2847)" fill="#D9D9D9"/>
</mask>
<g mask="url(#mask0_1_18)">
<path fill-rule="evenodd" clip-rule="evenodd" d="M96.6549 77.851C95.2115 74.245 94.1227 72.7775 92.2466 71.7016C90.4917 70.6951 88.027 69.9777 84.5266 69.6731C80.9007 69.5109 80.5623 67.6813 79.291 64.8346C78.9167 63.9777 77.6009 63.9067 77.1289 64.62C77.0399 64.5457 76.9483 64.479 76.8549 64.42C76.8756 63.9857 76.1002 62.8485 76.0685 62.4397C75.737 58.1725 74.0753 56.2227 70.5116 55.8781C69.7366 55.8031 64.6101 56.3617 63.9023 56.6593C60.8079 57.9605 58.0125 61.1845 58.9338 64.5147C58.0964 65.9609 57.2142 66.8914 55.7149 67.516C53.3345 68.1356 58.9744 102.257 65.828 122.251C68.7686 130.83 109.953 110.267 107.435 106.106C107.607 105.261 106.988 104.437 107.108 103.573C107.194 102.947 107.583 102.642 107.718 102.016C107.907 101.136 107.437 100.047 106.99 99.2312C106.797 98.8205 107.129 98.3089 107.181 97.8577C107.43 95.7294 106.274 96.0634 105.245 94.7948C105.257 94.7889 105.351 93.7763 105.351 93.7813C105.391 93.062 104.948 92.204 104.588 91.6543C104.344 91.2828 103.9 91.0879 103.497 91.1862C103.728 89.7335 104.1 88.5016 104.486 87.0809C105.171 84.5762 105.794 81.9682 106.94 79.6331C107.409 78.6769 106.834 77.9275 105.882 77.9892C102.803 78.1894 99.7248 78.1397 96.6549 77.851Z" fill="white"/>
<path fill-rule="evenodd" clip-rule="evenodd" d="M58.8102 67.1975L81.452 68.2253L92.2476 71.701L94.0741 72.7664L86.4747 91.4528L71.628 96.189L69.0527 106.749L71.3071 117.988L95.6616 111.847L106.168 109.202L109.982 119.003L110.067 123.226L109.68 125.423L84.1514 135.977C84.1514 135.977 70.5139 136.41 68.1263 136.718C65.7387 137.026 48.4576 141.024 48.4576 141.024L44.3514 141.114C44.3514 141.114 34.1713 132.827 32.3476 129.645C30.5239 126.464 24.8815 106.421 24.8815 106.421L24.8073 103.239L29.9783 82.3172C29.9783 82.3172 30.891 81.245 31.9882 79.4784C33.0854 77.7118 58.8102 67.1975 58.8102 67.1975Z" fill="#9DDADB"/>
<path fill-rule="evenodd" clip-rule="evenodd" d="M102.594 90.8042C100.606 91.1641 98.6647 91.8983 96.966 92.9937C96.271 93.4424 95.6658 94.0389 95.5776 94.903C95.5336 95.3442 95.615 95.7836 95.7237 96.2094C95.8058 96.5319 95.8697 96.9489 96.1831 97.134C96.2365 97.1652 96.2921 97.1872 96.3489 97.2012C95.72 97.5887 95.131 98.0329 94.6141 98.4787C94.1417 98.8864 93.6786 99.4802 93.5167 100.104C93.4882 100.039 93.4602 99.9786 93.4326 99.9215C92.8716 98.7733 92.1189 97.8707 91.048 97.3367C90.8835 96.9434 89.4559 95.3432 88.3488 95.5534C87.1363 95.7828 86.1652 95.9989 85.1328 96.7033C84.729 96.7464 84.3278 96.8038 83.9329 96.8727C83.8648 96.8837 83.8801 96.9761 83.9462 96.9754C84.2737 96.9747 84.6018 96.9782 84.9309 96.9896C85.7126 97.0134 86.4964 97.0703 87.2684 97.167C88.1946 97.2832 89.1517 97.3963 90.0416 97.6933C91.7676 98.2706 93.0386 100.198 93.0632 102.015C93.0669 102.313 93.0678 103.215 92.6486 103.176C92.2944 103.143 92.0648 102.442 91.9102 102.191C91.4968 101.527 90.8567 101.14 90.12 100.918C89.2548 100.656 88.3476 100.521 87.4626 100.341C86.9614 100.238 86.4601 100.136 85.9578 100.035C85.4438 99.9294 84.9458 99.7568 84.4369 99.9426C84.1294 100.055 84.1417 100.437 84.3473 100.631C84.6602 100.926 85.0745 100.971 85.4816 101.057C86.019 101.169 86.5552 101.282 87.0915 101.394C87.9205 101.568 88.7817 101.693 89.5988 101.931L89.5818 101.989C89.5165 101.98 89.4506 102.052 89.4729 102.128C89.6809 102.827 89.9486 103.632 89.862 104.37C89.794 104.955 89.3773 105.648 88.7091 105.564C88.7987 105.459 88.8156 105.294 88.728 105.155C88.4012 104.64 84.7674 102.912 84.5719 103.754C84.5657 103.783 84.5992 103.8 84.623 103.793C84.8711 103.707 85.3543 104.087 85.5762 104.198C85.8965 104.359 86.2206 104.515 86.5385 104.681C86.8862 104.863 87.2276 105.057 87.5623 105.259C87.8252 105.418 88.0306 105.593 88.3166 105.653C88.182 105.74 88.0846 105.882 88.0571 106.05C87.9881 106.489 87.796 106.878 87.4062 107.118C86.9975 107.369 86.4928 107.309 86.042 107.416C85.4277 107.559 84.9229 107.925 84.5239 108.406C83.6862 109.418 83.4106 111.047 82.1328 111.64C81.3695 111.993 80.4662 111.949 79.6459 111.939C78.73 111.928 77.8408 111.941 76.9518 112.19C76.1007 112.429 75.3195 112.835 74.5744 113.304C73.8759 113.743 73.105 114.238 72.5122 114.835C72.3225 114.434 72.1322 114.038 71.9732 113.624C71.598 112.646 71.3328 111.634 71.1668 110.601C71.0096 109.617 70.9368 108.618 70.8947 107.624C70.8734 107.127 70.8765 106.63 70.855 106.133C70.85 106.008 70.8551 105.873 70.8546 105.738C71.9414 104.892 73.1087 104.201 74.2841 103.493C74.2874 103.491 74.2904 103.488 74.2936 103.487C74.3299 103.464 74.3653 103.443 74.4018 103.421C74.4004 103.419 74.399 103.417 74.3965 103.415C74.5276 103.31 74.612 103.181 74.6548 103.043C76.2967 101.62 77.5878 99.8011 78.4622 97.7606C78.8286 96.9054 79.1736 96.0228 79.6974 95.2473C80.2548 94.4201 80.9737 93.8785 81.9042 93.525C82.9919 93.111 84.1277 92.8005 85.2658 92.5605C85.8874 92.4299 86.5792 92.2619 87.264 92.177C87.7412 92.1187 88.2132 92.0993 88.6567 92.1621C89.3138 92.2546 89.7469 92.6891 90.2083 93.1254C90.6494 93.5443 91.0885 93.9645 91.5068 94.4064C91.903 94.8253 92.2826 95.2621 92.6232 95.7275C92.8275 96.0064 93.0208 96.2957 93.1911 96.5979C93.2509 96.7047 93.327 96.8249 93.3696 96.9383C93.4125 97.0529 93.3778 97.1842 93.5103 97.1671C92.9649 97.2453 92.7777 98.6543 93.3165 98.5522C94.0742 98.4093 94.3399 97.4445 94.0855 96.6518C93.6317 95.2375 91.9646 93.6738 91.6316 93.34C90.8958 92.6024 90.108 91.618 89.0501 91.3674C89.035 91.3638 89.0189 91.3603 89.004 91.3577C89.2616 91.0417 89.4504 90.6786 89.6285 90.311C89.8119 89.9328 90.0328 89.4981 90.0546 89.0745C90.068 88.8048 89.7208 88.6969 89.595 88.9476C89.4122 89.3134 89.3579 89.7535 89.2368 90.1451C89.1131 90.5425 88.9491 90.9238 88.8324 91.3237C88.4182 91.2526 87.9805 91.252 87.54 91.2898C87.9963 90.4702 88.7546 88.9046 88.8444 88.7045C89.2567 87.7784 89.6402 86.8291 90.0015 85.8814C90.3918 84.8549 90.7032 83.7982 91.07 82.7635C91.2782 82.1768 91.488 81.5853 91.7291 81.0111C91.8125 80.8141 91.9037 80.6161 92.0124 80.4326C92.0335 80.3963 92.062 80.3646 92.0878 80.3297C92.1195 80.3066 92.1522 80.281 92.1706 80.2676C92.336 80.1419 92.3683 79.8953 92.4745 79.7278C92.644 79.4581 92.8764 79.3989 93.1784 79.3565C93.822 79.2667 94.4721 79.2086 95.1178 79.1432C96.067 79.0476 97.0165 78.9632 97.9676 78.8909C98.2555 78.8695 98.5422 78.8482 98.8303 78.8289C100.215 78.7334 101.602 78.6631 102.988 78.6178C104.215 78.5772 105.451 78.6096 106.676 78.5436C105.537 82.6568 104.21 86.7225 102.626 90.6858C102.61 90.7259 102.599 90.7654 102.594 90.8042ZM94.7799 102.031C94.5307 102.187 94.293 102.371 94.0758 102.575C94.0809 102.301 94.0544 102.017 94.0067 101.735C94.2316 101.921 94.5 102.01 94.7799 102.031ZM105.22 93.8611C105.202 93.8656 105.185 93.8778 105.179 93.8977C104.91 94.701 105.172 95.5255 105.847 96.0409C106.201 96.3095 106.929 96.57 106.972 97.0806C107.006 97.4935 106.604 97.8956 106.457 98.259C106.32 98.5976 106.298 98.9527 106.485 99.2765C106.723 99.6911 107.255 99.7998 107.485 100.208C107.776 100.725 107.502 101.431 107.312 101.939C107.135 102.409 106.889 102.889 106.749 103.38C105.493 104.25 102.604 105.909 102.245 106.027C101.808 106.172 101.37 106.313 100.93 106.448C100.085 106.71 99.2365 106.961 98.3838 107.195C97.8983 107.329 97.4116 107.461 96.9231 107.579C96.4964 107.681 96.0168 107.807 95.626 107.527C94.8381 106.96 95.0898 105.806 95.4488 105.084C95.4559 105.07 95.4544 105.058 95.4496 105.047C95.8563 104.895 96.2598 104.726 96.6665 104.592C97.4489 104.334 98.24 104.099 99.034 103.879C100.665 103.427 102.318 103.055 103.969 102.681C104.377 102.588 104.298 101.936 103.885 102.029C101.512 102.558 99.127 103.078 96.8183 103.846C96.2393 104.038 95.6667 104.244 95.0997 104.466C94.8316 104.571 94.5485 104.716 94.2587 104.757C94.241 104.759 94.2233 104.761 94.2056 104.762C93.6349 104.818 93.4893 104.342 93.7494 103.897C93.7816 103.842 93.8149 103.787 93.8496 103.735C94.3165 103.006 94.9473 102.478 95.5971 101.932C96.3768 101.721 97.137 101.378 97.8912 101.101C99.7529 100.417 101.615 99.7322 103.478 99.0486C103.843 98.9139 103.608 98.3563 103.243 98.4898C101.829 99.0079 100.414 99.5258 99 100.044L96.9303 100.803C96.5167 100.953 96.0096 101.215 95.5175 101.35C95.2748 101.416 95.0359 101.451 94.8131 101.428C94.0931 101.353 93.9451 100.484 94.1795 99.9266C94.442 99.3004 95.0328 98.8538 95.5564 98.4507C96.4636 97.7513 97.4545 97.2049 98.413 96.5987C98.5889 96.5356 98.7647 96.4726 98.9406 96.4095C99.9636 96.0418 101.152 95.7729 102.088 95.2202C102.369 95.0559 102.146 94.609 101.853 94.6535C101.086 94.7694 100.317 95.1468 99.5864 95.4061C98.7958 95.6876 98.004 95.9682 97.2133 96.2487C97.1339 96.2769 96.6704 96.4938 96.5932 96.469C96.544 96.4529 96.5067 96.294 96.4775 96.1899C96.3827 95.8476 96.2991 95.486 96.3081 95.1291C96.326 94.329 96.9328 93.8759 97.5561 93.4892C98.9441 92.629 100.507 92.001 102.094 91.6255C102.46 91.539 102.828 91.467 103.199 91.4066C103.636 91.3368 103.987 91.2129 104.264 91.6158C104.701 92.2507 105.005 93.1001 105.22 93.8611ZM106.354 118.774C105.889 117.704 105.824 116.507 105.457 115.402C105.268 114.832 105.038 114.272 104.795 113.723C104.599 113.279 104.308 112.818 104.22 112.34C104.214 112.308 104.25 112.285 104.278 112.296C104.765 112.497 105.185 113.014 105.5 113.421C105.878 113.908 106.185 114.429 106.451 114.985C106.98 116.091 107.472 117.445 107.132 118.673C107.031 119.039 106.528 119.175 106.354 118.774ZM94.9015 128.803C94.3796 128.531 93.9705 128.109 93.5113 127.749C93.0597 127.395 93.6033 126.691 94.055 127.045C94.4468 127.351 94.8042 127.752 95.2486 127.984C95.4625 128.095 95.5853 128.331 95.4851 128.567C95.3965 128.776 95.1148 128.915 94.9015 128.803ZM90.5744 116.308C91.3996 115.817 92.206 115.295 93.0855 114.905C93.6111 114.671 93.9526 115.494 93.4301 115.726C92.6201 116.085 91.8783 116.561 91.1184 117.013C90.6305 117.303 90.0833 116.6 90.5744 116.308ZM81.3106 117.234C81.0288 116.735 81.854 116.397 82.1316 116.89C82.4513 117.457 82.8045 118.004 83.1242 118.571C83.4058 119.071 82.5808 119.408 82.3031 118.916C81.9834 118.349 81.6302 117.801 81.3106 117.234ZM73.5599 128.941C73.442 129.149 73.2179 129.283 72.9764 129.178C72.774 129.089 72.6207 128.805 72.74 128.594C73.0885 127.979 73.4433 127.37 73.8719 126.806C74.2195 126.349 74.9241 126.893 74.5768 127.35C74.194 127.853 73.8712 128.392 73.5599 128.941ZM64.6312 70.0222C65.0722 70.2467 65.4706 70.5371 65.8615 70.8384C66.3159 71.1888 65.772 71.8936 65.3176 71.5432C64.9883 71.2893 64.6559 71.0313 64.284 70.8421C64.0691 70.7327 63.9481 70.4933 64.0476 70.2585C64.1368 70.0482 64.4169 69.9132 64.6312 70.0222ZM79.7185 82.5194C79.5486 83.0077 79.4004 83.4841 79.4547 84.0072C79.5141 84.5771 78.6312 84.6913 78.5719 84.1212C78.5007 83.4366 78.6759 82.8124 78.8986 82.1721C79.0869 81.6303 79.906 81.9797 79.7185 82.5194ZM83.1086 70.4811C83.5424 70.1035 84.0827 70.8116 83.6527 71.186C83.3041 71.4894 82.9554 71.793 82.6068 72.0965C82.1732 72.474 81.6329 71.766 82.0628 71.3916C82.4114 71.0881 82.76 70.7846 83.1086 70.4811ZM64.5915 93.1537C64.5829 93.7253 63.7013 93.595 63.7098 93.029C63.7231 92.1541 63.7653 91.2871 63.8903 90.4205C63.9721 89.8534 64.8538 89.9775 64.7719 90.5454C64.6469 91.412 64.6047 92.279 64.5915 93.1537ZM62.8013 103.667C62.2315 103.728 62.1174 102.845 62.6873 102.784C63.203 102.729 63.7261 102.799 64.2381 102.858C64.8077 102.925 64.6823 103.807 64.1133 103.74C63.6804 103.689 63.2373 103.62 62.8013 103.667ZM64.288 124.187C64.105 124.307 63.9157 124.419 63.7301 124.534C63.3582 124.766 62.9865 124.998 62.6151 125.23C61.8412 125.714 61.0679 126.199 60.2955 126.685C58.7493 127.659 57.187 128.607 55.6358 129.573C54.054 130.557 52.4779 131.552 50.9044 132.55C50.1631 133.02 49.414 133.477 48.667 133.939C48.0283 134.333 47.2591 134.977 46.521 135.123C46.483 135.131 46.464 135.084 46.4826 135.057C46.7226 134.7 47.1474 134.456 47.4902 134.201C47.8405 133.939 48.1994 133.69 48.5562 133.438C49.2999 132.912 50.0451 132.389 50.7986 131.877C52.3057 130.853 53.8166 129.834 55.328 128.817C56.8694 127.779 58.408 126.736 59.9677 125.725C60.702 125.249 61.4373 124.775 62.1731 124.301C62.5718 124.044 62.9707 123.788 63.3696 123.532C63.5419 123.422 63.7115 123.305 63.8891 123.203C64.1251 123.067 64.3173 123.064 64.5662 122.967C64.9722 122.81 65.2226 123.319 64.9306 123.593C64.6902 123.819 64.5719 124 64.288 124.187ZM59.5624 134.001C59.4433 133.793 59.5985 133.501 59.8006 133.418C60.0427 133.32 60.2634 133.446 60.3835 133.657C60.7015 134.214 61.116 134.71 61.6187 135.109C62.0679 135.465 61.5245 136.17 61.0749 135.814C60.445 135.314 59.9592 134.697 59.5624 134.001ZM53.3969 120.389C52.9425 120.038 53.4864 119.333 53.9407 119.684L55.2326 120.68C55.687 121.031 55.1431 121.736 54.6889 121.385L53.3969 120.389ZM41.4169 120.038C40.6254 120.386 39.6946 120.732 39.2243 121.506C39.2013 121.544 39.1496 121.506 39.1617 121.469C39.6876 119.888 41.6793 119.1 43.0377 118.395C43.9984 117.895 44.9936 117.456 46.0017 117.048C45.7438 115.871 45.8668 114.559 45.8139 113.361C45.7574 112.083 45.6806 110.804 45.5615 109.53C45.44 108.23 45.2829 106.926 45.0733 105.637C44.8645 104.353 44.5326 103.1 44.2935 101.825C44.2704 101.701 44.4427 101.673 44.4932 101.771C45.0804 102.908 45.436 104.205 45.7394 105.444C46.0518 106.721 46.2668 108.007 46.4164 109.312C46.5701 110.654 46.6647 112.001 46.7302 113.35C46.7612 113.99 46.784 114.63 46.8101 115.269C46.83 115.758 46.8722 116.239 46.8341 116.719C47.4434 116.483 48.0553 116.256 48.6657 116.033C50.6122 115.322 52.5712 114.642 54.5045 113.895C55.4536 113.529 56.3824 113.116 57.3251 112.735C58.2127 112.376 59.1447 111.959 60.074 111.73C60.4057 111.648 60.5079 112.103 60.3053 112.288C59.6082 112.925 58.6384 113.432 57.7919 113.847C56.9423 114.264 56.0466 114.601 55.1647 114.942C53.3255 115.655 51.4574 116.284 49.5942 116.929C47.7335 117.573 45.8689 118.215 44.0418 118.949C43.1619 119.303 42.2852 119.657 41.4169 120.038ZM33.8604 97.0003C33.4061 97.3523 32.8638 96.6462 33.3165 96.2954C33.9088 95.8365 34.5554 95.4658 35.2084 95.1012C35.7095 94.8215 36.0471 95.6464 35.553 95.9223C34.9662 96.2499 34.3927 96.588 33.8604 97.0003ZM36.314 130.032C35.858 130.381 35.3154 129.675 35.7701 129.327C36.4087 128.838 37.1301 128.473 37.8002 128.031C38.2769 127.716 38.8222 128.42 38.3441 128.736C37.6741 129.178 36.9526 129.542 36.314 130.032ZM33.1103 111.515C33.6453 111.906 34.3088 112.037 34.9392 112.198C35.4888 112.337 35.3697 113.221 34.8143 113.079C34.0289 112.88 33.233 112.707 32.5665 112.22C32.1029 111.881 32.6479 111.177 33.1103 111.515ZM35.1188 85.548C35.6692 85.6858 35.5499 86.569 34.994 86.4297C34.3773 86.2752 33.7486 86.1782 33.132 86.0237C32.5817 85.8859 32.7009 85.0028 33.2568 85.142C33.8735 85.2965 34.5022 85.3935 35.1188 85.548ZM43.1231 74.3035C43.6676 74.1379 44.0145 74.9582 43.4677 75.1247C42.7893 75.3313 42.1241 75.5564 41.4991 75.8958C40.9945 76.1698 40.6564 75.3452 41.1545 75.0747C41.7795 74.7353 42.4448 74.5101 43.1231 74.3035ZM49.3523 98.3616C48.8095 98.1765 49.1592 97.3576 49.6995 97.5418C50.269 97.7359 50.85 97.8678 51.4503 97.9168C52.022 97.9635 51.8948 98.8451 51.3255 98.7985C50.6498 98.7432 49.9927 98.5799 49.3523 98.3616ZM50.477 84.2124C51.0071 83.9909 51.3495 84.8128 50.8216 85.0335C49.8927 85.4216 48.919 85.6867 47.9794 86.0466C47.4438 86.2517 47.1001 85.4304 47.6348 85.2256C48.5744 84.8655 49.5482 84.6006 50.477 84.2124ZM62.2318 78.3007C62.804 78.3319 62.6756 79.2135 62.107 79.1824C61.5017 79.1493 60.9023 79.2249 60.3029 79.3019C59.7339 79.3751 59.6209 78.4921 60.189 78.419C60.8699 78.3315 61.5445 78.2631 62.2318 78.3007ZM102.984 77.73C101.523 77.7783 100.064 77.8544 98.6069 77.9583C98.539 77.9636 98.4723 77.9678 98.4045 77.9731C98.3949 77.9588 98.3831 77.9456 98.371 77.9314C97.8093 77.2993 97.3723 76.6512 96.9698 75.9064C96.5855 75.1975 96.207 74.4644 95.6765 73.8485C95.0715 73.1468 94.3109 72.6348 93.495 72.2113C93.0803 72.5753 92.705 72.9873 92.3683 73.416C92.0139 73.8671 91.3089 73.3235 91.6634 72.8723C91.9626 72.4912 92.2882 72.1329 92.6385 71.8019C92.1571 71.5883 91.6687 71.3921 91.1916 71.1958C89.4035 70.4607 87.5851 69.8021 85.741 69.2234C84.8838 68.9536 84.022 68.7271 83.1542 68.4969C82.6871 68.3733 82.219 68.1969 81.7483 68.0445C81.7398 67.7269 81.6007 67.388 81.3335 67.2127C81.1363 67.0844 80.991 67.0459 80.7653 66.9664C80.7157 66.9558 80.6858 66.9496 80.6718 66.9458C80.682 66.9467 80.7119 66.9518 80.7612 66.9612C80.8806 66.9986 80.8874 66.9819 80.782 66.9125C80.7534 66.7345 80.3525 66.4025 80.2483 66.2286C79.8863 65.6323 79.7128 64.9748 79.2246 64.4521C78.5516 63.7322 77.5549 63.5558 76.6967 63.9402C76.4809 62.9975 76.328 62.0042 75.8583 61.1985C75.8454 61.1767 75.8121 61.1708 75.801 61.1981C75.5082 61.8856 75.5681 62.6014 75.6345 63.3424C75.6963 64.0379 75.8139 64.7419 75.9933 65.4178C75.9416 65.4693 75.8885 65.5189 75.8331 65.5675C75.5726 65.7919 75.2844 65.976 74.976 66.1248C74.3886 66.4069 73.7566 66.5783 73.1171 66.6922C71.4664 66.9861 69.7331 67.0392 68.0629 66.9653C66.3736 66.8905 63.785 66.7848 62.2083 66.1479C61.1677 65.728 60.1869 65.1779 59.1964 64.6505C59.3887 63.5486 59.3255 62.3988 58.8789 61.5465C58.8254 61.4446 58.6551 61.4464 58.6394 61.5774C58.5422 62.4584 58.5923 63.3248 58.4254 64.2047C58.4225 64.2174 58.4199 64.2314 58.417 64.244C58.3234 64.1967 58.2299 64.1503 58.1364 64.104C57.9208 63.9983 57.6631 64.1316 57.5681 64.3344C56.0496 67.5834 53.0535 68.1451 49.9531 69.0907C46.5601 70.1254 43.1556 71.2089 39.9687 72.7882C36.9211 74.2992 34.0795 76.2928 31.9733 78.9949C31.4965 79.6067 31.0597 80.2493 30.6549 80.9136C31.1293 80.9122 31.6041 80.944 32.0797 81.0286C32.6427 81.1288 32.5202 82.0109 31.9548 81.9103C31.3436 81.8016 30.738 81.7869 30.1322 81.8189C28.7811 84.2752 27.8303 86.9854 27.0473 89.6333C25.5453 94.7103 24.8243 100.004 24.8609 105.293C25.1828 105.039 25.5124 104.794 25.8526 104.562C26.3253 104.239 26.8698 104.944 26.3966 105.267C25.8711 105.625 25.3655 106.011 24.8803 106.421C24.9433 108.731 25.1498 111.036 25.4998 113.32C26.3337 118.764 27.7963 124.29 30.1364 129.285C31.2842 131.736 32.6953 134.133 34.5888 136.085C35.4457 136.97 36.3896 137.745 37.4624 138.355C37.982 138.652 38.5243 138.906 39.0876 139.107C39.8136 139.368 40.7157 139.368 41.3665 139.786C41.5806 139.923 41.7572 140.118 41.901 140.345C41.8951 140.813 41.9468 141.274 42.1318 141.717C42.1901 141.855 42.3133 141.958 42.4541 141.997C42.4615 142.037 42.4665 142.075 42.4713 142.113C42.4736 142.13 42.5006 142.131 42.5017 142.113C42.5028 142.078 42.5039 142.044 42.5049 142.008C42.5497 142.016 42.5959 142.017 42.6422 142.011C44.3194 141.801 45.9927 141.544 47.6639 141.27C47.4828 140.889 47.2913 140.513 47.105 140.133C46.852 139.616 47.6754 139.277 47.9261 139.788C48.144 140.233 48.3686 140.672 48.5757 141.12C50.3656 140.821 52.1533 140.508 53.9405 140.217C57.7415 139.598 61.5524 139.063 65.3605 138.49C71.2742 137.599 77.214 136.571 83.1855 136.056C83.3346 135.593 83.5096 135.138 83.672 134.68C83.8637 134.139 84.6829 134.488 84.4919 135.027C84.379 135.345 84.2601 135.661 84.1495 135.978C85.3604 135.885 86.5727 135.813 87.7863 135.771C89.8572 135.698 91.9276 135.778 93.9989 135.726C96.1048 135.674 98.1328 135.373 100.15 134.764C100.513 134.654 100.702 134.402 100.757 134.112C100.76 134.111 100.762 134.108 100.764 134.105C100.854 133.967 100.94 133.852 101.031 133.749C101.143 133.654 101.267 133.569 101.415 133.49C101.691 133.342 101.985 133.236 102.286 133.151C102.617 133.057 102.958 133.008 103.291 132.922C103.571 132.849 103.842 132.759 104.111 132.657C104.596 132.473 105.051 132.257 105.496 131.989C105.885 131.756 106.223 131.45 106.538 131.123C107.196 130.499 107.737 129.74 108.196 128.965C108.463 128.512 108.709 128.046 108.925 127.566C109.303 126.734 109.605 125.881 109.912 125.022C110.03 124.763 110.134 124.501 110.226 124.235C109.394 124.102 108.559 124.014 107.706 124.11C107.137 124.174 107.023 123.291 107.592 123.227C108.57 123.117 109.522 123.226 110.474 123.379C110.503 123.254 110.531 123.129 110.555 123.003C110.631 122.736 110.688 122.465 110.729 122.193C110.758 122.068 110.787 121.943 110.816 121.818C110.862 121.393 110.908 120.966 110.955 120.539C111.069 119.851 111.14 119.159 111.168 118.463C111.207 118.002 111.224 117.541 111.216 117.078C111.228 115.951 111.211 114.83 111.075 113.71C110.973 113.022 110.84 112.339 110.676 111.663C110.584 111.201 110.47 110.745 110.338 110.294C110.155 109.622 109.974 108.957 109.729 108.301C109.552 107.86 109.375 107.418 109.197 106.976C108.78 106.062 108.312 105.173 107.793 104.312C107.764 104.258 107.636 104.146 107.569 104.154C107.518 104.159 107.453 104.215 107.484 104.274C107.487 104.279 107.49 104.285 107.493 104.29C107.463 104.242 107.434 104.191 107.405 104.143C107.378 104.097 107.289 104.01 107.229 104.018C107.226 104.019 107.222 104.019 107.218 104.021C107.232 104.008 107.245 103.991 107.257 103.973C107.593 103.453 107.77 102.803 107.984 102.223C108.161 101.745 108.322 101.244 108.32 100.729C108.319 100.277 108.187 99.8487 107.861 99.5249C107.49 99.1565 106.867 99.0417 107.123 98.4072C107.414 97.6853 107.894 97.0298 107.242 96.3364C106.91 95.9831 106.437 95.8267 106.062 95.5305C105.631 95.1879 105.382 94.687 105.323 94.1505C105.348 94.1607 105.378 94.1502 105.384 94.1156C105.58 93.1075 105.211 92.0758 104.762 91.1766C104.517 90.6888 104.12 90.5974 103.677 90.629C105.103 86.6581 106.399 82.6433 107.49 78.5666C107.526 78.4328 107.562 78.2993 107.597 78.1656C107.65 77.9658 107.454 77.7342 107.26 77.7166C105.846 77.5927 104.401 77.6816 102.984 77.73Z" fill="black"/>
<path fill-rule="evenodd" clip-rule="evenodd" d="M84.1455 35.2793C82.8412 28.4685 79.6092 20.9731 72.6182 18.4488C57.4166 14.5137 40.2992 31.5735 41.2191 46.6256C41.5276 51.7789 45.0841 56.9945 50.4501 57.7457C51.7995 59.1236 53.6624 59.8311 55.4869 60.4182C77.3449 68.4029 89.4631 58.055 84.1455 35.2793Z" fill="white"/>
<path fill-rule="evenodd" clip-rule="evenodd" d="M88.2615 30.4072C87.278 28.4898 86.2556 26.5932 85.1956 24.7171C84.1633 22.8913 83.2014 21.0141 81.9915 19.304C74.7648 9.09071 64.1965 10.4547 58.9184 12.5923C55.9279 11.7373 50.666 12.7665 47.8582 14.2487C43.3128 16.6482 38.3966 24.4139 36.8129 27.8223C33.3165 35.3478 31.7693 44.963 35.7261 52.6268C36.2433 53.6285 36.8555 54.539 37.5244 55.4062C37.2396 55.9185 36.8996 56.4127 36.5158 56.9048C35.3752 58.3672 34.2291 59.7871 33.2878 61.392C32.3525 62.9869 31.6209 64.649 31.1476 66.4385C30.2552 69.8134 30.6608 73.452 32.7826 76.2884C34.6287 78.7565 37.5461 80.3952 40.5692 80.1972C40.7259 80.1987 40.8826 80.1985 41.0395 80.1941C41.5212 80.7972 42.0835 81.3373 42.7042 81.7912C44.6063 83.1839 48.7511 83.4893 51.0612 83.245C51.1915 83.3247 51.323 83.4042 51.4543 83.4826C53.0068 84.4099 54.6301 85.3381 56.3498 85.9184C57.5148 86.3122 59.0094 86.5737 60.1029 86.0399C60.6663 86.3195 61.5078 86.1368 61.9855 85.7868C62.7708 85.2119 63.3501 84.2845 63.6575 83.3718C64.4027 81.1562 63.8644 78.9065 63.3165 76.713C62.7121 74.29 62.1185 71.8646 61.5207 69.4408C61.0528 67.5455 60.5708 65.6195 59.7468 63.842C59.3204 62.9209 58.8052 62.0494 58.1811 61.248C58.185 61.1735 58.1734 61.1009 58.1436 61.0352C57.9054 60.5117 57.522 60.2705 57.0636 59.9527C57.0045 59.9121 56.9453 59.8704 56.887 59.8274C56.6515 59.6199 56.4038 59.4309 56.145 59.2769C56.0426 59.197 55.9413 59.1158 55.8399 59.0346C54.9968 58.3524 54.1893 57.6252 53.4527 56.8295C52.7382 56.0577 52.0774 55.2409 51.4409 54.4041C50.7936 53.553 50.3129 52.584 49.6676 51.7393C49.6122 51.6668 49.4954 51.6662 49.4398 51.7396C49.2983 51.9295 49.2176 52.1307 49.263 52.3256L49.1829 52.3483C49.1135 52.0543 48.8074 51.847 48.4428 51.9603C47.8969 52.1294 47.4425 52.2251 46.9352 52.1021C46.9473 51.5272 46.9528 50.952 46.957 50.3759C46.9638 49.3158 46.9602 48.2537 46.9379 47.1941C47.2189 47.224 47.5014 47.2829 47.7816 47.3679C48.1809 47.4881 48.5667 47.6694 48.9073 47.9093C49.2431 48.1465 49.4986 48.4916 49.8898 48.6364C50.3397 48.8016 50.8016 48.3728 50.6165 47.912C50.2416 46.9809 48.7522 46.6121 47.8513 46.5432C47.5419 46.5192 47.2306 46.5325 46.9235 46.5788C46.9065 45.8988 46.8817 45.2199 46.8457 44.5412C46.8289 44.2202 46.81 43.8995 46.7898 43.5779C47.4452 43.2835 48.1678 43.1274 48.89 43.1329C49.148 43.2892 49.4058 43.4433 49.6561 43.6006C50.4512 44.1017 51.2434 44.6064 52.0282 45.1234C52.0992 45.1692 52.1691 45.2151 52.2402 45.2621C52.7062 45.5688 53.1831 45.1437 53.0466 44.6419C51.9301 40.5291 54.065 36.8673 56.7349 33.8994C59.6903 30.6131 65.6908 29.5004 69.0052 24.041C70.8737 24.1765 75.0807 24.7525 77.1032 27.2089C79.9352 30.6515 80.0615 34.0472 80.7887 38.2731C81.5163 42.5023 82.5435 46.8791 82.1189 51.1964C81.7273 55.1774 79.7422 58.7917 76.1969 60.7932C76.109 60.8427 76.0199 60.8912 75.9306 60.9386C74.0901 61.9178 72.0055 62.3967 69.9209 62.2753C67.6134 62.14 65.5998 61.3519 63.5622 60.3257C63.4448 60.268 63.306 60.4362 63.4017 60.5338C66.2941 63.4884 71.2867 63.9559 75.0236 62.5951C75.1982 62.5311 75.3713 62.4638 75.5427 62.3923C75.0013 64.9789 75.5253 67.6736 76.9577 69.9392C77.8192 71.3024 79.0097 72.4244 80.3901 73.2527C81.9114 74.1649 83.7379 74.8245 84.8934 76.2316C85.9519 77.5211 85.8948 79.1307 84.4973 80.1346C84.1453 80.3888 84.0852 81.0708 84.498 81.3138C84.6558 81.4056 84.8138 81.4997 84.9748 81.5911C85.8976 82.1171 88.3614 83.0109 88.7412 83.0068C92.114 82.972 94.0329 80.2447 95.093 77.1828C96.3379 73.5888 95.3697 69.5298 93.1028 66.5528C91.2843 64.1643 88.0304 61.9991 88.7721 58.5834C89.0365 57.3633 89.7569 56.2594 90.4653 55.2546C91.2736 54.1102 92.1609 53.0218 92.9258 51.8459C93.6862 50.6785 94.3331 49.4315 94.6064 48.0543C95.0052 46.0415 94.4138 43.9973 93.6785 42.1343C92.102 38.1347 90.2214 34.2305 88.2615 30.4072Z" fill="black"/>
</g>
<path fill-rule="evenodd" clip-rule="evenodd" d="M71.0186 57.4436C70.2376 57.2367 69.5105 56.8172 68.9433 56.2348C68.7461 56.0323 68.6719 55.8012 68.6793 55.5801C68.6875 55.3315 68.8031 55.0922 68.9805 54.9189C69.1583 54.745 69.3954 54.6399 69.6385 54.6465C69.8498 54.6522 70.0705 54.739 70.264 54.9531L70.3042 54.9957C70.6421 55.3478 71.0583 55.6188 71.512 55.7695C71.9494 55.9148 72.4218 55.9479 72.8914 55.8326C73.7858 55.6129 74.348 55.0413 74.9269 54.289C74.9985 54.1942 75.0697 54.0967 75.1412 53.9978C75.1832 53.9111 75.2492 53.8504 75.3264 53.813C75.412 53.7715 75.5135 53.7602 75.6105 53.7806C75.704 53.8002 75.7916 53.8491 75.8554 53.9209C75.916 53.9892 75.9569 54.0779 75.9612 54.1855C75.9895 54.8841 75.7079 55.5472 75.2574 56.0975C74.7571 56.7086 74.0498 57.178 73.3557 57.4003C72.5909 57.645 71.7794 57.6451 71.0186 57.4436ZM62.0202 43.0339C61.9647 41.8791 63.6719 41.3949 63.9911 42.5035C64.2769 43.4966 64.2145 44.4509 63.8758 45.4219C63.5523 46.3496 62.4038 46.0845 62.2185 45.3017C61.9702 44.2524 62.0546 43.7523 62.0202 43.0339ZM75.2053 40.8177C75.407 40.4685 75.7294 40.2063 76.165 40.2748C77.5262 40.4888 77.3799 42.4008 77.0362 43.3667C76.8495 43.8912 76.0565 44.1204 75.6349 43.7342C74.9478 43.1044 74.4802 41.7298 75.148 40.9359C75.1639 40.8972 75.182 40.858 75.2053 40.8177ZM62.8783 37.8384L63.0808 37.7754C63.7075 37.5818 64.4907 37.3725 65.0106 37.8293C65.2863 38.0715 65.4347 38.5687 65.1452 38.872C64.636 39.4056 63.9843 39.3083 63.308 39.4352C62.7506 39.5399 62.2229 39.7025 61.702 39.9269C60.5592 40.4192 59.6722 41.1632 58.7465 41.9738C58.625 42.0801 58.4673 41.9276 58.5147 41.795C58.9518 40.5736 59.9641 39.486 61.0257 38.7657C61.5923 38.3812 62.2228 38.0415 62.8783 37.8384ZM73.3633 35.9634L73.526 35.9754C75.2984 36.1134 77.6335 36.5446 78.6695 38.1342C78.7316 38.3699 78.7053 38.4255 78.6829 38.4625L78.6755 38.4748C78.6571 38.5063 78.6446 38.5481 78.5449 38.5941C78.5152 38.591 78.4852 38.5875 78.4547 38.5836C78.0675 38.5337 77.7536 38.4368 77.4486 38.3335L77.1177 38.2203C76.7339 38.0899 76.3478 37.9664 75.9456 37.8903C75.0874 37.728 74.2159 37.6481 73.3426 37.6581C73.1534 37.6603 72.9657 37.6205 72.8102 37.5309C72.6625 37.4459 72.5415 37.3175 72.4704 37.1351C72.3782 36.8992 72.3718 36.7123 72.4743 36.4755C72.5513 36.2976 72.6773 36.165 72.8304 36.0784C72.9865 35.9901 73.172 35.9501 73.3633 35.9634Z" fill="black"/>
</svg>
